<svg width="339" height="265" viewBox="0 0 339 265" fill="none" xmlns="http://www.w3.org/2000/svg">
<path d="M320.875 190.429C320.313 185.924 319.187 181.42 316.375 177.479C314.687 174.664 311.875 173.538 308.5 175.227C307.375 175.79 306.812 175.79 306.25 176.353C300.625 178.605 295 180.857 289.375 180.857C286.562 180.857 284.312 180.294 282.625 178.042C280.937 175.227 282.625 172.975 283.75 170.723C283.75 170.723 283.75 170.723 283.75 170.16C287.687 163.966 292.75 160.025 298.937 155.521C303.437 152.143 308.5 149.891 313.562 146.513C316.937 144.261 320.313 142.008 322.563 138.63C324.25 135.815 323.687 133.563 321.437 131.874C320.312 130.748 318.625 130.185 316.938 129.622C310.75 127.37 304 126.807 297.25 126.807C274.75 126.807 252.25 126.807 229.75 127.37C229.188 127.37 228.625 127.37 227.5 127.37C226.375 127.37 226.375 126.807 226.375 126.244C226.937 124.555 227.5 122.866 227.5 120.614C228.062 118.924 228.625 117.798 230.875 117.235C248.875 113.294 266.875 112.731 284.875 114.42C288.25 114.42 291.062 114.983 295 115.546C294.437 114.983 293.313 114.42 292.75 114.42C278.125 108.79 262.375 107.101 246.625 106.538C227.5 105.975 208.375 107.101 189.812 110.479C178.562 111.605 166.75 113.857 155.5 117.235C140.875 121.177 126.812 126.244 112.75 131.874C98.6875 138.067 85.75 144.824 72.8125 152.706C62.125 159.462 52 167.345 43.5625 176.353C43 177.479 44.125 177.479 44.6875 177.479L45.25 176.916C49.75 174.101 54.25 171.849 58.75 169.034C64.9375 165.656 71.6875 162.84 79 161.151C80.125 160.588 81.25 160.588 81.8125 162.277C84.625 174.664 88 186.487 90.8125 198.874C91.375 200 91.9375 200.563 93.0625 200.563C99.25 200.563 106 200.563 112.187 200.563C140.875 200.563 169.563 200 198.813 200C205.563 200 210.625 195.496 211.75 189.303C211.75 188.177 211.75 187.614 210.063 187.614C207.813 187.614 205.562 187.614 203.312 187.614C170.125 187.614 136.937 188.177 104.312 188.177C102.625 188.177 102.062 188.177 101.5 186.487C100.375 180.857 98.6875 174.664 97 169.034C96.4375 166.219 96.4375 166.219 99.25 166.219C130.75 166.219 162.813 165.656 194.313 165.656C198.25 165.656 202.75 165.656 206.687 165.656C211.75 165.656 217.375 161.151 218.5 156.647C220.75 148.765 222.437 140.319 224.687 132.437C225.25 130.748 225.812 130.185 227.5 130.185C248.312 130.185 269.687 130.185 290.5 129.622C295 129.622 300.062 129.622 304.562 130.185C309.062 130.748 313 131.311 316.938 133C320.313 134.689 320.875 136.378 318.063 139.193C315.25 142.008 311.312 144.261 307.937 146.513C299.5 151.017 291.062 156.084 284.875 163.403C282.062 166.219 279.812 169.597 279.25 174.101C278.687 178.605 280.375 181.983 284.875 183.109C287.687 184.235 290.5 183.672 293.312 183.672C298.937 183.109 304 180.857 309.625 178.605C311.875 177.479 313 178.042 314.687 179.731C315.812 181.42 316.937 183.672 317.5 185.924C319.75 193.244 319.75 200 320.312 207.319C320.312 208.445 320.312 209.008 322 209.008C323.687 209.008 323.125 207.882 323.125 207.319C322.562 201.126 322 195.496 320.875 190.429Z" stroke="white"/>
<path d="M169.562 219.706C169.562 211.261 176.313 204.504 184.75 204.504C193.188 204.504 199.938 210.698 199.938 219.706C199.938 228.151 193.188 234.908 184.75 234.908C176.313 234.908 169.562 228.151 169.562 219.706Z" stroke="white"/>
<path d="M134.687 220.269C134.687 228.714 127.938 235.471 118.938 235.471C110.5 235.471 104.312 228.714 104.312 220.269C104.312 211.824 111.063 205.067 120.063 205.067C128.5 205.067 134.687 211.824 134.687 220.269Z" stroke="white"/>
<path d="M337.187 227.025C337.187 219.706 331.562 213.513 324.25 212.387C323.687 212.387 322.562 211.823 322.562 212.95C323.125 215.202 321.437 218.017 323.687 219.706C324.25 220.269 324.25 220.832 324.25 221.395C324.25 223.084 324.25 225.336 324.25 227.025C324.25 227.588 324.25 228.714 323.687 228.714C322 229.84 322.562 230.966 322.562 232.655C322.562 234.345 322.562 235.471 322.562 237.16C322.562 238.286 322 238.286 321.437 238.286C320.875 238.286 320.312 238.286 319.75 237.16C319.187 233.781 320.875 230.403 318.062 227.588C318.625 224.21 316.375 220.832 319.75 218.017C319.75 218.017 319.75 217.454 319.75 216.891C319.75 215.765 319.75 214.076 319.75 212.95C319.75 211.823 319.187 211.823 318.062 211.823C312.437 212.95 307.375 218.017 306.25 224.21C305.125 232.092 305.687 239.412 306.25 247.294C306.25 249.546 307.375 251.798 307.375 254.05C307.375 254.613 307.375 255.739 308.5 256.302C310.187 260.244 313 262.496 316.937 263.622C327.625 267 337.187 259.681 337.75 248.983C337.75 241.101 337.187 233.781 337.187 227.025Z" stroke="white"/>
<path d="M323.688 221.395C323.688 220.269 323.125 219.706 322 219.706C320.875 219.706 320.312 220.269 320.312 221.395C320.312 223.084 320.312 224.21 320.312 225.899C320.312 227.025 320.875 227.588 322 227.588C323.125 227.588 324.25 227.025 323.688 225.899C323.688 225.336 323.688 224.21 323.688 223.647C323.688 223.084 323.125 221.958 323.688 221.395Z" stroke="white"/>
<path d="M44.125 176.916C44.125 177.479 44.6875 178.042 45.25 178.042C43.5625 179.731 41.3125 180.857 39.0625 182.546C40.75 180.294 42.4375 178.605 44.125 176.916Z" stroke="white"/>
<path d="M239.313 62.6219C182.5 63.1849 126.25 63.1849 69.4375 63.748C67.1875 63.748 66.625 63.1849 66.0625 61.4959C63.8125 52.4875 61 42.916 58.75 33.9076C58.1875 32.2185 57.625 31.6555 55.9375 31.6555C46.9375 31.6555 37.9375 32.2185 29.5 32.2185C21.625 32.2185 13.75 32.2185 6.4375 32.7816C3.0625 32.7816 0.8125 35.0337 0.8125 38.4118C0.8125 41.2269 3.0625 43.479 6.4375 43.479C17.125 43.479 27.8125 42.916 38.5 42.916C40.75 42.916 42.4375 42.916 44.6875 42.916C45.8125 42.916 46.9375 42.916 48.0625 42.916C49.75 42.916 50.3125 43.479 50.875 45.1681C58.1875 72.7564 65.5 100.345 72.8125 127.933C73.9375 131.874 75.0625 135.815 75.625 139.193C79.5625 136.378 83.5 134.126 87.4375 131.874C107.125 120.614 128.5 112.168 150.438 105.975C170.125 100.345 190.375 96.4034 210.625 95.2774C216.25 94.7143 221.875 95.2774 228.063 94.7143C228.625 94.7143 229.187 94.7143 230.312 94.7143C231.437 95.2774 233.125 95.2774 234.25 94.7143C234.25 93.5883 234.812 93.0253 234.812 91.8992C237.062 83.4538 239.313 75.0085 241 66.0001C242.125 62.6219 242.125 62.6219 239.313 62.6219Z" stroke="white"/>
<path d="M320.875 190.429C320.313 185.924 319.187 181.42 316.375 177.479C314.687 174.664 311.875 173.538 308.5 175.227C307.375 175.79 306.812 175.79 306.25 176.353C300.625 178.605 295 180.857 289.375 180.857C286.562 180.857 284.312 180.294 282.625 178.042C280.937 175.227 282.625 172.975 283.75 170.723C283.75 170.723 283.75 170.723 283.75 170.16C287.688 163.966 292.75 160.025 298.938 155.521C303.437 152.143 308.5 149.891 313.562 146.513C316.937 144.261 320.313 142.008 322.563 138.63C324.25 135.815 323.687 133.563 321.437 131.874C320.312 130.748 318.625 130.185 316.938 129.622C310.75 127.37 304 126.807 297.25 126.807C274.75 126.807 252.25 126.807 229.75 127.37C229.188 127.37 228.625 127.37 227.5 127.37C226.375 127.37 226.375 126.807 226.375 126.244C226.937 124.555 227.5 122.866 227.5 120.614C228.062 118.924 228.625 117.798 230.875 117.235C248.875 113.294 266.875 112.731 284.875 114.42C288.25 114.42 291.062 114.983 295 115.546C294.438 114.983 293.312 114.42 292.75 114.42C278.125 108.79 262.375 107.101 246.625 106.538C227.5 105.975 208.375 107.101 189.812 110.479C178.562 111.605 166.75 113.857 155.5 117.235C140.875 121.177 126.812 126.244 112.75 131.874C98.6875 138.067 85.75 144.824 72.8125 152.706C62.125 159.462 52 167.345 43.5625 176.353C43 177.479 44.125 177.479 44.6875 177.479L45.25 176.916C49.75 174.101 54.25 171.849 58.75 169.034C64.9375 165.656 71.6875 162.84 79 161.151C80.125 160.588 81.25 160.588 81.8125 162.277C84.625 174.664 88 186.487 90.8125 198.874C91.375 200 91.9375 200.563 93.0625 200.563C99.25 200.563 106 200.563 112.187 200.563C140.875 200.563 169.562 200 198.812 200C205.562 200 210.625 195.496 211.75 189.303C211.75 188.177 211.75 187.614 210.062 187.614C207.812 187.614 205.562 187.614 203.312 187.614C170.125 187.614 136.937 188.177 104.312 188.177C102.625 188.177 102.062 188.177 101.5 186.487C100.375 180.857 98.6875 174.664 97 169.034C96.4375 166.219 96.4375 166.219 99.25 166.219C130.75 166.219 162.813 165.656 194.312 165.656C198.25 165.656 202.75 165.656 206.687 165.656C211.75 165.656 217.375 161.151 218.5 156.647C220.75 148.765 222.438 140.319 224.688 132.437C225.25 130.748 225.812 130.185 227.5 130.185C248.312 130.185 269.688 130.185 290.5 129.622C295 129.622 300.062 129.622 304.562 130.185C309.062 130.748 313 131.311 316.938 133C320.313 134.689 320.875 136.378 318.063 139.193C315.25 142.008 311.312 144.261 307.937 146.513C299.5 151.017 291.062 156.084 284.875 163.403C282.062 166.219 279.812 169.597 279.25 174.101C278.688 178.605 280.375 181.983 284.875 183.109C287.688 184.235 290.5 183.672 293.312 183.672C298.938 183.109 304 180.857 309.625 178.605C311.875 177.479 313 178.042 314.687 179.731C315.812 181.42 316.937 183.672 317.5 185.924C319.75 193.244 319.75 200 320.312 207.319C320.312 208.445 320.312 209.008 322 209.008C323.687 209.008 323.125 207.882 323.125 207.319C322.562 201.126 322 195.496 320.875 190.429Z" fill="#61B846"/>
<path d="M169.562 219.706C169.562 211.261 176.313 204.504 184.75 204.504C193.188 204.504 199.938 210.698 199.938 219.706C199.938 228.151 193.188 234.908 184.75 234.908C176.313 234.908 169.562 228.151 169.562 219.706Z" fill="#024F9D"/>
<path d="M134.687 220.269C134.687 228.714 127.938 235.471 118.938 235.471C110.5 235.471 104.312 228.714 104.312 220.269C104.312 211.824 111.063 205.067 120.063 205.067C128.5 205.067 134.687 211.824 134.687 220.269Z" fill="#024F9D"/>
<path d="M337.187 227.025C337.187 219.706 331.562 213.513 324.25 212.387C323.687 212.387 322.562 211.823 322.562 212.95C323.125 215.202 321.437 218.017 323.687 219.706C324.25 220.269 324.25 220.832 324.25 221.395C324.25 223.084 324.25 225.336 324.25 227.025C324.25 227.588 324.25 228.714 323.687 228.714C322 229.84 322.562 230.966 322.562 232.655C322.562 234.344 322.562 235.471 322.562 237.16C322.562 238.286 322 238.286 321.437 238.286C320.875 238.286 320.312 238.286 319.75 237.16C319.187 233.781 320.875 230.403 318.062 227.588C318.625 224.21 316.375 220.832 319.75 218.017C319.75 218.017 319.75 217.454 319.75 216.891C319.75 215.765 319.75 214.076 319.75 212.95C319.75 211.823 319.187 211.823 318.062 211.823C312.437 212.95 307.375 218.017 306.25 224.21C305.125 232.092 305.687 239.412 306.25 247.294C306.25 249.546 307.375 251.798 307.375 254.05C307.375 254.613 307.375 255.739 308.5 256.302C310.187 260.244 313 262.496 316.937 263.622C327.625 267 337.187 259.681 337.75 248.983C337.75 241.101 337.187 233.781 337.187 227.025Z" fill="#024F9D"/>
<path d="M323.688 221.395C323.688 220.269 323.125 219.706 322 219.706C320.875 219.706 320.312 220.269 320.312 221.395C320.312 223.084 320.312 224.21 320.312 225.899C320.312 227.025 320.875 227.588 322 227.588C323.125 227.588 324.25 227.025 323.688 225.899C323.688 225.336 323.688 224.21 323.688 223.647C323.688 223.084 323.125 221.958 323.688 221.395Z" fill="#024F9D"/>
<path d="M44.125 176.916C44.125 177.479 44.6875 178.042 45.25 178.042C43.5625 179.731 41.3125 180.857 39.0625 182.546C40.75 180.294 42.4375 178.605 44.125 176.916Z" fill="#DEA554"/>
<path d="M239.313 62.6219C182.5 63.1849 126.25 63.1849 69.4375 63.748C67.1875 63.748 66.625 63.1849 66.0625 61.4959C63.8125 52.4875 61 42.916 58.75 33.9076C58.1875 32.2185 57.625 31.6555 55.9375 31.6555C46.9375 31.6555 37.9375 32.2185 29.5 32.2185C21.625 32.2185 13.75 32.2185 6.4375 32.7816C3.0625 32.7816 0.8125 35.0337 0.8125 38.4118C0.8125 41.2269 3.0625 43.479 6.4375 43.479C17.125 43.479 27.8125 42.916 38.5 42.916C40.75 42.916 42.4375 42.916 44.6875 42.916C45.8125 42.916 46.9375 42.916 48.0625 42.916C49.75 42.916 50.3125 43.479 50.875 45.1681C58.1875 72.7564 65.5 100.345 72.8125 127.933C73.9375 131.874 75.0625 135.815 75.625 139.193C79.5625 136.378 83.5 134.126 87.4375 131.874C107.125 120.614 128.5 112.168 150.438 105.975C170.125 100.345 190.375 96.4034 210.625 95.2774C216.25 94.7143 221.875 95.2774 228.063 94.7143C228.625 94.7143 229.188 94.7143 230.312 94.7143C231.438 95.2774 233.125 95.2774 234.25 94.7143C234.25 93.5883 234.812 93.0253 234.812 91.8992C237.062 83.4538 239.312 75.0085 241 66.0001C242.125 62.6219 242.125 62.6219 239.313 62.6219Z" fill="#024F9D"/>
<path d="M202.041 87.864C206.044 87.3276 208.855 83.6446 208.319 79.6378C207.783 75.631 204.103 72.8177 200.1 73.3542C196.097 73.8906 193.287 77.5736 193.823 81.5804C194.359 85.5871 198.038 88.4004 202.041 87.864Z" fill="#61B846" stroke="white" stroke-width="0.5"/>
<path d="M184.019 90.1196C188.022 89.5832 190.833 85.9002 190.297 81.8934C189.761 77.8866 186.082 75.0734 182.079 75.6098C178.076 76.1462 175.265 79.8292 175.801 83.836C176.337 87.8427 180.016 90.656 184.019 90.1196Z" fill="#61B846" stroke="white" stroke-width="0.5"/>
<path d="M95.1897 39.4494C99.1927 38.913 102.003 35.23 101.467 31.2233C100.932 27.2165 97.252 24.4032 93.2489 24.9396C89.2459 25.476 86.4352 29.159 86.9711 33.1658C87.5071 37.1726 91.1866 39.9859 95.1897 39.4494Z" fill="#61B846" stroke="white" stroke-width="0.5"/>
<path d="M305.125 15.3278L310.75 56.9917C310.75 56.9917 292.75 61.4959 284.313 54.1766L285.438 60.3698C285.438 60.3698 267.438 64.8741 259 57.5547L259.562 63.748L221.875 68.2522C221.875 68.2522 216.812 67.1262 213.438 64.311L214.562 71.0673L185.875 75.0085C185.875 75.0085 177.438 72.7564 175.75 68.2522L176.875 75.0085L144.25 79.5127C144.25 79.5127 135.812 78.3867 134.687 69.9413C133.562 62.0589 126.812 18.143 126.812 18.143C126.812 18.143 130.75 10.8236 138.625 5.7564L145.937 59.8068L158.875 57.5547L152.688 11.9497C152.688 11.9497 157.188 5.19337 164.5 1.2522L172.938 56.9917L198.813 53.6135L196.562 36.1598C196.562 36.1598 202.75 28.8404 208.375 27.1514L211.75 51.3614L244.375 46.8572L242.125 31.0925C242.125 31.0925 248.875 22.6472 254.5 21.5211L256.75 45.7312L267.438 44.0421L265.188 28.2774C265.188 28.2774 271.375 20.9581 278.125 19.269L282.062 41.79L295 40.1009L292.75 24.3362C292.188 24.3362 298.938 15.8909 305.125 15.3278Z" fill="#61B846" stroke="white" stroke-width="0.5"/>
<path d="M100.375 39.5378L103.75 66L124 63.1849C124 63.1849 124.562 62.0588 125.125 66C125.688 69.9412 127.375 81.2017 127.375 81.2017C127.375 81.2017 128.5 100.345 105.438 104.849C104.312 104.849 76.1875 110.479 71.6875 78.3866C71.6875 78.3866 79 102.034 100.375 98.6555C100.938 98.6555 114.438 96.4034 116.688 84.0168L93.625 87.395C93.625 87.395 85.75 83.4538 82.9375 73.3194L82.375 68.2521L88.5625 67.6891L86.3125 49.6723L100.375 39.5378Z" fill="#61B846" stroke="white" stroke-width="0.5"/>
<path d="M109.938 156.647L100.938 142.572V142.009C106.562 135.252 113.312 136.378 115 136.941C118.375 133.563 127.938 134.689 128.5 134.689L142.563 144.824L139.75 145.387V144.261H140.875L128.5 135.815C127.375 135.815 118.375 134.689 115.563 137.504H115C114.438 137.504 107.688 135.252 102.063 142.009L109.938 154.395C111.625 152.706 117.813 148.202 125.688 148.765C126.25 147.639 129.625 144.261 138.063 144.261V145.387C129.063 145.387 126.25 149.891 126.25 149.891C117.25 149.328 110.5 156.084 109.938 156.647Z" fill="white"/>
<path d="M108.813 160.588L98.6875 144.824L101.5 141.446L109.938 154.958C111.625 153.832 117.25 149.328 124.563 149.328C125.125 149.328 125.125 149.328 125.688 149.328C126.25 148.202 129.625 144.824 138.062 144.824C139.188 144.824 140.875 144.824 142 144.824H142.563L143.688 151.017H143.125C140.875 150.454 139.187 150.454 137.5 150.454C130.75 150.454 127.938 153.832 127.938 153.832C117.25 153.269 109.375 160.025 108.813 160.588ZM99.8125 144.824L108.813 159.462C110.5 158.336 117.813 152.706 127.375 152.706C127.938 152.143 130.75 149.328 137.5 149.328C139.187 149.328 140.875 149.328 142.563 149.891L142 145.387C140.875 145.387 139.75 145.387 138.625 145.387C129.063 145.387 126.812 149.891 126.812 149.891H126.25C125.687 149.891 125.125 149.891 124.563 149.891C116.125 149.891 109.938 155.521 109.938 156.084V156.647L101.5 143.135L99.8125 144.824Z" fill="white"/>
<path d="M165.063 131.874C163.375 131.874 162.25 131.874 161.125 132.437C161.688 132.437 162.813 132.437 163.375 132.437C170.125 132.437 175.75 137.504 175.75 144.261C175.75 151.017 170.125 156.084 163.375 156.084C157.75 156.084 153.25 152.706 151.562 147.639C152.688 154.395 158.313 159.462 165.063 159.462C172.375 159.462 178.562 153.269 178.562 145.95C178.562 138.067 172.938 131.874 165.063 131.874Z" fill="white"/>
<path d="M197.688 124.555C196.563 124.555 194.875 123.429 192.063 121.74V121.177C196.563 124.555 197.687 123.992 198.25 123.992C198.812 123.992 198.25 122.866 198.25 122.866C197.687 120.614 193.75 118.924 193.188 118.924L192.063 118.361H193.188C193.75 118.361 193.75 118.361 193.75 118.361C193.75 118.361 193.75 117.798 193.188 117.798C188.688 115.546 188.125 112.731 188.125 112.731C188.125 112.168 187.563 111.605 187.563 111.605C185.313 110.479 180.812 112.168 180.812 112.168V111.605C180.812 111.605 185.875 109.916 188.125 111.042C188.687 111.605 189.25 112.168 189.25 112.731C189.25 112.731 189.813 114.983 194.313 117.235L194.875 118.361C194.875 118.361 194.875 118.361 194.313 118.924C195.438 119.487 198.25 121.177 198.813 122.866C199.375 123.992 198.813 124.555 198.813 124.555C198.25 123.992 197.688 124.555 197.688 124.555Z" fill="white"/>
<path d="M193.188 125.681C190.375 125.681 188.125 122.866 188.125 122.866L188.688 122.303C188.688 122.303 193.188 126.807 196.563 123.429L197.125 123.992C195.438 125.118 194.313 125.681 193.188 125.681Z" fill="white"/>
<path d="M189.25 125.681C188.688 125.681 187.563 125.681 185.875 124.555C185.313 124.555 181.938 125.118 180.812 123.429H181.375C182.5 125.118 185.875 124.555 185.875 124.555C189.813 126.807 190.937 125.118 190.937 125.118H191.5C191.5 125.118 190.938 125.681 189.25 125.681Z" fill="white"/>
<path d="M222.438 149.891C222.438 149.891 221.312 148.202 216.25 144.824C212.875 143.135 211.75 141.445 211.75 140.882C211.75 140.319 211.75 140.319 211.75 140.319C211.75 140.319 212.875 138.63 212.312 134.689C211.75 131.874 208.375 126.244 206.125 125.118C205.562 124.555 205 124.555 204.438 125.118C203.875 125.118 203.875 125.681 203.875 125.681C203.875 126.807 206.125 129.622 206.687 130.185V132.437C206.687 132.437 203.313 129.622 201.625 129.059L196.562 125.118H194.875C195.438 125.681 197.125 128.496 200.5 130.748V131.311C196.563 128.496 194.875 125.681 194.875 125.681L196.562 124.555L201.625 129.059C203.313 129.622 206.687 131.874 206.687 132.437V131.311C206.687 130.748 203.875 127.933 203.875 126.244C203.875 125.681 204.437 125.118 205 125.118C205.562 124.555 206.125 125.118 207.25 125.118C210.063 126.807 213.438 132.437 214 135.252C214.563 139.193 213.437 140.882 213.437 140.882C213.437 140.882 213.437 140.882 213.437 141.445C213.437 142.008 214.562 143.135 217.937 145.387C221.875 147.639 223 149.328 222.438 149.891Z" fill="white"/>
<path d="M218.5 160.588L206.125 145.95C205.563 145.95 203.313 145.387 201.625 144.261C201.625 144.261 201.062 144.261 201.062 143.698H201.625C201.625 143.698 201.625 143.698 201.625 144.261C203.313 144.824 206.125 145.387 206.125 145.387L218.5 160.588Z" fill="white"/>
<path d="M198.813 133C198.813 133 194.313 128.496 193.188 127.933C192.063 126.807 192.062 125.681 192.062 125.681H192.625C192.625 125.681 192.625 126.807 193.75 127.933C194.312 128.496 198.813 132.437 198.813 133Z" fill="white"/>
<path d="M193.187 130.748C192.062 130.185 191.5 129.059 191.5 128.496C191.5 127.933 192.062 127.37 192.062 127.37V127.933C192.062 127.933 191.5 127.933 191.5 128.496C192.062 129.059 192.625 129.622 193.187 130.748Z" fill="white"/>
<path d="M195.438 135.815C193.188 133.563 192.063 132.437 192.625 131.311V130.748C192.625 130.185 193.188 130.185 193.75 130.185C195.438 130.185 198.813 134.689 198.813 135.252H198.25C197.125 134.126 194.875 130.185 193.188 130.185C193.188 130.185 192.625 130.185 192.625 130.748C192.625 131.874 192.625 133 195.438 135.815Z" fill="white"/>
<path d="M202.188 151.017C201.625 151.017 202.188 139.756 198.813 138.63C195.438 137.504 193.75 137.504 193.75 137.504L190.938 134.689C190.375 133.563 189.25 131.311 188.688 131.311C188.125 131.311 188.125 131.874 187.563 132.437H187C187.562 131.311 187.563 130.748 188.125 130.748C189.25 130.748 190.938 133.563 190.938 134.126L193.75 136.378C194.313 136.378 195.438 136.378 198.813 137.504C202.75 139.193 202.188 150.454 202.188 151.017Z" fill="white"/>
<path d="M192.062 145.387C191.5 144.824 180.25 132.437 181.937 125.681C181.937 125.681 182.5 125.681 183.062 125.681C183.625 125.681 184.187 126.807 184.187 127.933C184.187 127.933 185.312 132.437 187 133C188.687 133.563 188.687 135.815 188.125 136.941C188.687 136.941 190.375 138.067 190.937 140.882H190.375C190.375 138.63 188.125 137.504 187.562 137.504C187.562 137.504 188.125 134.689 186.437 134.126C184.75 133 183.062 129.059 183.062 128.496C183.062 127.37 182.5 126.807 181.937 126.807H181.375C180.812 132.437 192.625 145.387 192.062 145.387Z" fill="white"/>
<path d="M187.563 132.437C187 131.874 187.563 131.311 185.875 127.933C185.313 125.681 184.75 125.681 184.187 125.118C183.625 125.118 183.063 125.681 183.063 125.681H182.5C182.5 125.681 183.063 125.118 183.625 125.118C184.188 125.118 185.313 126.244 185.875 127.933C187.563 131.874 187.563 132.437 187.563 132.437Z" fill="white"/>
<path d="M188.688 131.311C188.125 128.496 186.438 127.933 186.438 127.933V127.37C186.438 127.37 188.688 127.933 188.688 131.311Z" fill="white"/>
<path d="M186.437 127.37H185.875L188.125 125.681L186.437 127.37Z" fill="white"/>
<path d="M185.875 126.807L185.312 126.244L187 125.118V125.681L185.875 126.807Z" fill="white"/>
<path d="M185.312 125.681L185.875 124.555L186.438 125.118L185.312 125.681Z" fill="white"/>
<path d="M198.813 116.672C198.813 116.109 198.25 113.857 199.375 113.294L199.938 112.731C199.938 112.731 200.5 111.605 201.062 111.605C201.625 111.605 201.625 111.605 202.187 111.605V112.168H201.625C201.063 112.168 200.5 113.294 200.5 113.294H199.938C199.375 113.857 199.375 114.983 199.375 115.546L198.813 116.672Z" fill="white"/>
<path d="M201.625 114.42C201.062 114.42 201.625 112.168 202.75 111.605C203.313 111.605 203.875 111.605 204.437 111.605V112.168H203.875C203.312 111.605 203.313 111.605 202.75 112.168C202.188 112.168 201.625 113.857 201.625 114.42Z" fill="white"/>
<path d="M203.312 114.42C203.312 113.857 203.875 111.605 205.563 111.042C206.125 111.042 206.688 111.042 207.25 111.605V112.168C206.688 111.605 206.125 111.605 205.563 111.605C204.438 112.168 203.875 113.857 203.312 114.42Z" fill="white"/>
<path d="M207.25 114.42C207.25 113.857 208.937 111.605 210.625 111.605C211.187 111.605 211.75 112.168 211.75 112.731H211.188C211.188 112.168 210.625 112.168 210.062 112.168C208.938 112.168 207.25 114.42 207.25 114.42Z" fill="white"/>
<path d="M210.062 114.983C209.5 114.42 210.062 113.857 210.625 113.294C211.75 112.731 212.312 112.168 212.875 112.168C213.437 112.168 213.437 112.731 213.437 113.294H211.75C211.75 112.731 212.312 112.731 211.75 112.731C211.187 112.731 210.625 114.42 210.062 114.983Z" fill="white"/>
<path d="M213.438 116.109C212.312 116.109 211.188 115.546 210.625 113.857H211.188C211.75 114.42 211.75 114.983 212.312 114.983C212.875 114.42 213.438 113.857 214.563 113.857C215.125 113.857 215.688 114.42 216.25 114.983C215.688 114.983 215.125 116.109 213.438 116.109ZM212.312 114.983C212.875 114.983 212.875 115.546 213.438 115.546C214.562 115.546 215.125 114.983 215.688 114.983C215.125 114.42 215.125 114.42 214.563 114.42C213.438 113.857 212.875 114.983 212.312 114.983Z" fill="white"/>
<path d="M205 114.42C205 113.857 206.688 111.042 208.375 111.605C208.938 111.605 208.937 112.168 209.5 112.168H208.938C208.938 111.605 208.375 111.605 208.375 111.605C207.25 111.605 205.562 113.294 205 114.42Z" fill="white"/>
<path d="M209.5 114.983C209.5 114.983 208.938 114.983 208.375 113.857C208.375 113.294 207.812 112.731 207.812 112.731H208.375C208.375 112.731 208.375 113.294 208.938 113.857C209.5 114.42 209.5 114.42 209.5 114.983Z" fill="white"/>
<path d="M198.812 117.235C198.25 117.235 198.812 116.109 199.375 115.546C200.5 114.42 201.625 114.42 202.75 114.42V114.983C201.625 114.42 200.5 114.983 199.937 116.109C199.375 116.109 198.812 117.235 198.812 117.235Z" fill="white"/>
<path d="M200.5 117.235C200.5 117.235 199.938 116.109 200.5 114.983C200.5 114.42 201.062 114.42 201.062 114.42V114.983C201.062 114.983 200.5 114.983 200.5 115.546C200.5 115.546 201.062 116.672 200.5 117.235Z" fill="white"/>
<path d="M202.188 116.672C201.625 116.672 202.187 114.42 203.875 113.857C204.437 113.857 205 113.857 205.563 113.857H206.125V114.42H205.563C205 114.42 205 113.857 204.438 114.42C202.75 114.983 202.188 116.672 202.188 116.672Z" fill="white"/>
<path d="M204.437 116.109C203.875 116.109 204.438 114.42 205.563 113.857C206.125 113.857 206.687 113.857 207.25 114.42L206.687 114.983C206.125 114.42 205.562 114.42 205 114.42C205 114.983 204.437 116.109 204.437 116.109Z" fill="white"/>
<path d="M205.562 117.235C205.562 116.672 207.25 114.983 208.937 114.983C209.5 114.983 210.062 114.983 210.625 115.546V116.109H210.062C209.5 115.546 209.5 115.546 208.937 115.546C207.25 114.983 205.562 117.235 205.562 117.235Z" fill="white"/>
<path d="M207.812 117.235L208.938 116.109C208.938 116.109 209.5 114.983 210.625 114.983C211.188 114.983 212.313 115.546 212.875 116.109L212.312 117.235C211.75 116.672 211.188 116.109 210.625 116.109C210.062 116.109 209.5 117.235 209.5 117.235H207.812Z" fill="white"/>
<path d="M216.25 119.487C215.687 118.924 215.125 118.361 214.562 118.361C213.437 118.361 212.312 118.924 212.312 118.924L211.188 117.235H211.75L212.875 118.361C213.437 117.798 214 117.235 215.125 117.798C215.125 118.361 215.687 118.361 216.25 119.487Z" fill="white"/>
<path d="M213.438 119.487L216.25 118.924C216.25 118.924 216.25 118.924 216.813 118.924C216.813 118.924 216.813 119.487 216.813 120.05V119.487H215.688V120.05C215.688 119.487 216.25 119.487 216.25 118.924H215.688L213.438 119.487Z" fill="white"/>
<path d="M212.312 116.672C211.75 116.672 211.75 116.109 211.75 115.546H212.312C212.312 115.546 212.312 116.109 212.312 116.672Z" fill="white"/>
<path d="M217.937 119.487C216.25 118.924 215.688 116.672 215.688 116.672H216.25C216.25 117.235 216.812 118.924 217.937 119.487C217.937 118.924 217.938 118.924 218.5 118.924L219.062 119.487C218.5 119.487 218.5 119.487 217.937 119.487Z" fill="white"/>
<path d="M215.125 117.798H214V118.361C214 117.235 214.562 116.672 214.562 116.672H215.125V117.798Z" fill="white"/>
<path d="M213.438 117.798C213.438 117.235 214 116.109 214 116.109H214.563C214.563 116.672 214 117.235 213.438 117.798Z" fill="white"/>
<path d="M217.375 123.992C216.812 123.992 215.687 123.429 215.687 122.866L215.125 121.177C215.125 121.177 215.687 121.177 216.25 121.177C217.375 121.177 217.937 121.177 218.5 121.74C219.062 122.303 219.062 122.866 218.5 123.429C218.5 123.992 217.937 123.992 217.375 123.992ZM215.687 122.303C215.687 122.866 216.25 123.429 217.375 123.429C217.937 123.429 217.937 123.429 217.937 122.866C217.937 122.303 217.937 121.74 217.937 121.177C217.937 120.614 216.812 120.614 216.25 120.614C215.687 120.614 215.687 120.614 215.687 120.614V122.303Z" fill="white"/>
<path d="M213.437 126.244C213.437 125.681 213.438 125.118 212.875 125.118C212.875 125.118 212.875 125.118 212.312 125.118C212.312 124.555 212.313 123.992 211.75 123.992H211.188H210.625V123.429V122.866C210.625 122.303 210.063 122.303 210.063 122.303C210.063 122.303 210.062 121.74 209.5 122.303L210.063 122.866V122.303C210.063 121.74 210.062 120.614 209.5 120.614C209.5 120.614 208.938 120.614 208.938 121.177C208.938 120.05 208.375 119.487 208.375 119.487C208.375 119.487 207.812 119.487 207.812 120.614C207.812 120.05 207.813 119.487 207.25 119.487C207.25 119.487 206.688 119.487 206.125 120.05C206.125 120.05 205.562 119.487 205 118.924C204.437 118.924 204.437 118.924 203.875 119.487C203.875 119.487 202.75 118.924 202.187 119.487V120.614L201.625 121.177C201.625 121.177 201.625 120.614 201.062 120.614C200.5 120.05 200.5 119.487 200.5 119.487C200.5 118.924 200.5 118.361 200.5 117.798C200.5 117.235 200.5 117.235 200.5 117.235H201.062C201.062 117.235 201.625 117.798 201.062 118.361C201.062 118.924 201.062 119.487 201.062 120.05C201.062 120.05 201.625 120.614 202.187 121.177V120.614C202.75 120.05 202.75 120.05 203.313 120.05H203.875C204.437 119.487 205 119.487 205 119.487C205.562 119.487 206.125 120.05 206.125 120.614C206.688 120.05 206.688 120.05 207.25 120.05C207.813 120.05 207.812 120.614 207.812 120.614C207.812 120.05 208.375 120.05 208.938 120.05C209.5 120.05 209.5 120.614 210.063 121.177V121.74C210.625 121.177 210.625 121.177 211.188 121.177C211.75 121.177 211.75 121.177 211.75 122.303V122.866C211.75 122.866 211.75 122.866 212.312 122.866C212.312 122.866 212.875 123.992 212.875 124.555V125.118H213.437C214 125.118 214 125.681 214 126.244H214.563L215.125 126.807H215.688C216.25 126.807 216.813 126.807 217.375 126.807C217.375 126.807 217.375 126.244 217.937 126.244C217.375 125.118 216.812 124.555 216.25 123.992C215.687 123.992 215.125 123.992 215.125 123.992H214.563V123.429C214.563 123.429 215.125 123.429 216.25 123.429C216.812 123.429 217.375 124.555 217.937 126.244H217.375C217.375 126.244 217.937 126.807 217.937 127.37C217.375 127.933 217.375 127.933 216.25 127.37L213.437 126.244Z" fill="white"/>
<path d="M199.938 119.487C199.938 118.361 198.812 117.235 198.812 117.235L199.375 116.672C199.375 117.235 200.5 118.361 199.938 119.487Z" fill="white"/>
<path d="M201.625 118.924C201.063 117.798 201.063 117.798 200.5 117.798C199.938 117.798 199.938 118.361 199.938 118.361L199.375 117.798C199.375 117.798 199.938 116.672 200.5 116.672C201.063 117.235 201.625 117.798 201.625 118.924Z" fill="white"/>
<path d="M203.875 118.924C203.312 117.798 202.75 117.235 201.625 117.235C201.063 116.672 200.5 117.235 200.5 117.235C200.5 117.235 201.063 116.672 201.625 116.672C202.75 116.672 203.312 117.235 203.875 118.924Z" fill="white"/>
<path d="M205.563 118.924C205 117.798 205 117.235 204.438 116.672C203.313 116.109 202.188 116.672 202.188 116.672V116.109C202.188 116.109 203.875 114.983 205 116.109C205.562 116.672 205.563 117.798 205.563 118.924Z" fill="white"/>
<path d="M207.812 118.924C207.812 117.798 206.687 115.546 206.687 115.546H207.25C207.25 115.546 207.812 117.798 207.812 118.924Z" fill="white"/>
<path d="M210.063 119.487C210.063 118.361 208.938 117.235 208.938 116.672L209.5 116.109C208.937 116.672 210.063 118.361 210.063 119.487Z" fill="white"/>
<path d="M210.625 117.235C210.625 117.235 211.187 116.672 212.312 116.672C212.875 116.672 213.438 117.235 214 117.798H213.437C212.875 117.235 212.312 116.672 211.75 116.672C211.187 116.672 210.625 117.235 210.625 117.235Z" fill="white"/>
<path d="M214 125.118C213.438 122.866 212.312 121.176 210.625 120.05C208.937 119.487 207.812 118.924 207.812 118.924V118.361C207.812 118.361 209.5 118.361 210.625 119.487C211.75 120.05 212.313 120.613 212.875 121.176C214 122.866 214 123.992 214 125.118Z" fill="white"/>
<path d="M216.25 119.487C216.25 118.924 216.25 118.361 216.25 118.361H216.813C216.813 118.924 216.812 118.924 216.25 119.487Z" fill="white"/>
<path d="M215.125 116.672C214 116.109 213.438 115.546 213.438 115.546H214C214 115.546 214.562 116.109 215.125 116.672C215.125 116.109 215.688 116.109 216.25 116.109L215.125 114.983V114.42L216.25 115.546C216.25 116.672 215.687 116.672 215.125 116.672Z" fill="white"/>
<path d="M206.687 119.487H205.562L203.875 118.924V118.361L205.562 118.924H206.687V119.487Z" fill="white"/>
<path d="M214 128.496C214 128.496 213.437 127.933 212.875 126.807C212.875 126.807 212.312 127.37 212.312 126.807C212.312 126.807 211.75 126.244 211.75 125.681C211.75 125.681 211.75 125.681 211.188 125.681C210.625 125.681 210.625 125.118 210.625 123.992L210.062 124.555C209.5 124.555 209.5 123.992 209.5 122.866H208.937C208.375 122.866 208.375 122.303 208.375 121.176C208.375 121.176 208.375 121.176 207.812 121.176C207.25 121.176 207.25 121.176 206.687 120.05C206.687 120.05 206.687 120.613 206.125 120.613C205.562 120.613 205 120.613 204.437 119.487L203.875 120.05C203.312 120.05 202.75 119.487 202.187 118.924C202.187 119.487 201.625 119.487 201.625 120.05C201.062 120.05 200.5 120.05 199.938 118.924H200.5C201.062 120.05 201.625 120.05 201.625 120.05C201.625 120.05 202.187 119.487 202.187 118.924V118.361L202.75 118.924C203.312 120.05 203.875 120.05 203.875 120.05C204.437 120.05 204.437 119.487 204.437 119.487C205.562 121.176 205.562 121.176 206.125 120.613V120.05V118.924L206.687 120.05C207.25 121.176 207.812 121.176 207.812 121.176L208.375 120.613L208.937 119.487V120.613C208.937 121.739 209.5 122.302 209.5 122.302H210.062H210.625V122.866C210.625 123.992 211.188 124.555 211.188 124.555C211.188 124.555 211.75 124.555 211.75 123.992L212.312 123.429V123.992C212.312 125.681 212.875 125.681 212.875 125.681C212.875 125.681 212.875 125.681 213.437 125.118L214 124.555V126.244C214 127.37 214 126.244 214 127.933C214 127.933 214.562 127.37 214.562 126.807L215.125 125.681V126.244C213.437 127.37 214 127.933 214 128.496C214.562 127.37 214.562 126.807 214.562 126.244C214.562 125.681 214 125.118 214 125.118L214.562 124.555C214.562 124.555 215.125 125.118 215.125 125.681C215.125 126.807 215.125 127.37 214 128.496Z" fill="white"/>
<path d="M212.875 127.37C212.875 127.37 211.187 125.118 208.375 123.428C206.125 121.739 202.187 120.05 197.687 120.613H195.437V120.05H197.687C199.375 120.05 201.625 120.05 203.312 120.613C205 121.176 206.687 121.739 208.375 122.865C211.187 125.118 213.437 127.37 212.875 127.37Z" fill="white"/>
<path d="M195.437 119.487L198.25 118.924V119.487L196 120.05L195.437 119.487Z" fill="white"/>
<path d="M198.812 117.798C198.812 117.798 196 118.924 196 119.487L194.875 118.924L198.812 117.798L198.25 117.235L194.875 118.924L194.312 118.361L198.812 116.672V117.235" fill="white"/>
<path d="M191.5 121.177L190.938 120.051L192.063 120.614L191.5 121.177Z" fill="white"/>
<path d="M188.688 122.866H188.125L187.562 122.303L188.688 122.866Z" fill="white"/>
</svg>
